<svg id="visual" viewBox="0 0 1920 1080" width="1920" height="1080" xmlns="http://www.w3.org/2000/svg" xmlns:xlink="http://www.w3.org/1999/xlink" version="1.1"><path d="M0 77L175 141L349 87L524 120L698 87L873 152L1047 185L1222 66L1396 141L1571 120L1745 87L1920 77L1920 0L1745 0L1571 0L1396 0L1222 0L1047 0L873 0L698 0L524 0L349 0L175 0L0 0Z" fill="#001220"></path><path d="M0 206L175 357L349 239L524 325L698 336L873 260L1047 455L1222 347L1396 282L1571 368L1745 336L1920 206L1920 75L1745 85L1571 118L1396 139L1222 64L1047 183L873 150L698 85L524 118L349 85L175 139L0 75Z" fill="#061f30"></path><path d="M0 714L175 779L349 671L524 584L698 617L873 671L1047 692L1222 649L1396 714L1571 768L1745 552L1920 789L1920 204L1745 334L1571 366L1396 280L1222 345L1047 453L873 258L698 334L524 323L349 237L175 355L0 204Z" fill="#082d41"></path><path d="M0 854L175 876L349 854L524 671L698 703L873 843L1047 822L1222 887L1396 854L1571 843L1745 671L1920 865L1920 787L1745 550L1571 766L1396 712L1222 647L1047 690L873 669L698 615L524 582L349 669L175 777L0 712Z" fill="#0a3c53"></path><path d="M0 1081L175 1081L349 1081L524 1081L698 1081L873 1081L1047 1081L1222 1081L1396 1081L1571 1081L1745 1081L1920 1081L1920 863L1745 669L1571 841L1396 852L1222 885L1047 820L873 841L698 701L524 669L349 852L175 874L0 852Z" fill="#094b65"></path></svg>