<svg id="visual" viewBox="0 0 900 600" width="900" height="600" xmlns="http://www.w3.org/2000/svg" xmlns:xlink="http://www.w3.org/1999/xlink" version="1.1"><rect width="900" height="600" fill="#fff"></rect><g><g transform="translate(210 399)"><path d="M53.9 -68.4C68.6 -51.9 78.3 -33.7 84.5 -12.8C90.6 8.1 93.2 31.7 84.5 50.7C75.8 69.7 55.8 84 33.8 91.4C11.8 98.8 -12.3 99.3 -33.9 91.9C-55.4 84.5 -74.6 69.3 -84.7 49.8C-94.8 30.4 -95.9 6.6 -92.4 -16.9C-89 -40.4 -80.9 -63.6 -64.8 -79.9C-48.6 -96.1 -24.3 -105.4 -2.3 -102.6C19.6 -99.8 39.2 -85 53.9 -68.4Z" fill="#094b65"></path></g><g transform="translate(498 83)"><path d="M35.3 -42.6C44.9 -33.9 51.4 -22.1 52.6 -10.1C53.7 1.9 49.5 14 43.1 24.6C36.6 35.2 28 44.3 17.2 49.1C6.3 53.8 -6.8 54.3 -18.8 50.5C-30.9 46.7 -41.9 38.6 -47.3 27.9C-52.8 17.2 -52.8 4 -49.2 -7.3C-45.6 -18.6 -38.4 -28 -29.7 -36.9C-20.9 -45.7 -10.4 -54.2 1.2 -55.6C12.8 -57 25.6 -51.4 35.3 -42.6Z" fill="#094b65"></path></g><g transform="translate(786 125)"><path d="M30 -35.7C38.3 -28.7 44.3 -18.8 45.7 -8.4C47.1 1.9 43.9 12.7 39 23.7C34.1 34.7 27.4 45.9 17.8 49.8C8.1 53.8 -4.5 50.5 -16.6 45.9C-28.6 41.4 -40 35.5 -45 26.3C-50 17 -48.6 4.4 -45.8 -7.5C-43.1 -19.4 -38.9 -30.4 -31.1 -37.5C-23.2 -44.6 -11.6 -47.8 -0.4 -47.3C10.8 -46.8 21.6 -42.7 30 -35.7Z" fill="#094b65"></path></g><g transform="translate(266 143)"></g><g transform="translate(599 312)"><path d="M43 -48.5C56.9 -39.6 70.2 -27.1 72.5 -12.9C74.9 1.3 66.3 17.3 56.3 30.6C46.4 43.8 35 54.3 20.6 61.9C6.2 69.5 -11.3 74.3 -27.7 70.7C-44.1 67.1 -59.5 55.1 -66.3 39.9C-73 24.7 -71.2 6.3 -67.5 -11.5C-63.9 -29.2 -58.4 -46.1 -46.8 -55.5C-35.3 -64.8 -17.6 -66.6 -1.5 -64.8C14.5 -62.9 29.1 -57.5 43 -48.5Z" fill="#094b65"></path></g></g></svg>