<svg id="visual" viewBox="0 0 960 300" width="960" height="300" xmlns="http://www.w3.org/2000/svg"
                xmlns:xlink="http://www.w3.org/1999/xlink" version="1.1">
                <rect x="0" y="0" width="960" height="300" fill="#001220"></rect>
                <path
                    d="M0 66L17.8 63.2C35.7 60.3 71.3 54.7 106.8 54C142.3 53.3 177.7 57.7 213.2 59.2C248.7 60.7 284.3 59.3 320 54.8C355.7 50.3 391.3 42.7 426.8 36.3C462.3 30 497.7 25 533.2 23C568.7 21 604.3 22 640 29.3C675.7 36.7 711.3 50.3 746.8 54.7C782.3 59 817.7 54 853.2 49.2C888.7 44.3 924.3 39.7 942.2 37.3L960 35L960 301L942.2 301C924.3 301 888.7 301 853.2 301C817.7 301 782.3 301 746.8 301C711.3 301 675.7 301 640 301C604.3 301 568.7 301 533.2 301C497.7 301 462.3 301 426.8 301C391.3 301 355.7 301 320 301C284.3 301 248.7 301 213.2 301C177.7 301 142.3 301 106.8 301C71.3 301 35.7 301 17.8 301L0 301Z"
                    fill="#094b65"></path>
                <path
                    d="M0 101L17.8 93C35.7 85 71.3 69 106.8 64.5C142.3 60 177.7 67 213.2 74.2C248.7 81.3 284.3 88.7 320 89.7C355.7 90.7 391.3 85.3 426.8 82.2C462.3 79 497.7 78 533.2 73.3C568.7 68.7 604.3 60.3 640 58.2C675.7 56 711.3 60 746.8 64.2C782.3 68.3 817.7 72.7 853.2 77C888.7 81.3 924.3 85.7 942.2 87.8L960 90L960 301L942.2 301C924.3 301 888.7 301 853.2 301C817.7 301 782.3 301 746.8 301C711.3 301 675.7 301 640 301C604.3 301 568.7 301 533.2 301C497.7 301 462.3 301 426.8 301C391.3 301 355.7 301 320 301C284.3 301 248.7 301 213.2 301C177.7 301 142.3 301 106.8 301C71.3 301 35.7 301 17.8 301L0 301Z"
                    fill="#6a8799"></path>
                <path
                    d="M0 88L17.8 93.2C35.7 98.3 71.3 108.7 106.8 111.3C142.3 114 177.7 109 213.2 103C248.7 97 284.3 90 320 87.3C355.7 84.7 391.3 86.3 426.8 90.7C462.3 95 497.7 102 533.2 102.3C568.7 102.7 604.3 96.3 640 96.7C675.7 97 711.3 104 746.8 103.7C782.3 103.3 817.7 95.7 853.2 96C888.7 96.3 924.3 104.7 942.2 108.8L960 113L960 301L942.2 301C924.3 301 888.7 301 853.2 301C817.7 301 782.3 301 746.8 301C711.3 301 675.7 301 640 301C604.3 301 568.7 301 533.2 301C497.7 301 462.3 301 426.8 301C391.3 301 355.7 301 320 301C284.3 301 248.7 301 213.2 301C177.7 301 142.3 301 106.8 301C71.3 301 35.7 301 17.8 301L0 301Z"
                    fill="#bbc8d1"></path>
                <path
                    d="M0 125L17.8 127.7C35.7 130.3 71.3 135.7 106.8 139C142.3 142.3 177.7 143.7 213.2 142.5C248.7 141.3 284.3 137.7 320 137C355.7 136.3 391.3 138.7 426.8 142.5C462.3 146.3 497.7 151.7 533.2 151.5C568.7 151.3 604.3 145.7 640 139.2C675.7 132.7 711.3 125.3 746.8 121.2C782.3 117 817.7 116 853.2 119.5C888.7 123 924.3 131 942.2 135L960 139L960 301L942.2 301C924.3 301 888.7 301 853.2 301C817.7 301 782.3 301 746.8 301C711.3 301 675.7 301 640 301C604.3 301 568.7 301 533.2 301C497.7 301 462.3 301 426.8 301C391.3 301 355.7 301 320 301C284.3 301 248.7 301 213.2 301C177.7 301 142.3 301 106.8 301C71.3 301 35.7 301 17.8 301L0 301Z"
                    fill="#ffffff"></path>
                <path
                    d="M0 176L17.8 176.5C35.7 177 71.3 178 106.8 176.3C142.3 174.7 177.7 170.3 213.2 166.8C248.7 163.3 284.3 160.7 320 164.2C355.7 167.7 391.3 177.3 426.8 177.7C462.3 178 497.7 169 533.2 167.5C568.7 166 604.3 172 640 172.3C675.7 172.7 711.3 167.3 746.8 169.3C782.3 171.3 817.7 180.7 853.2 178.7C888.7 176.7 924.3 163.3 942.2 156.7L960 150L960 301L942.2 301C924.3 301 888.7 301 853.2 301C817.7 301 782.3 301 746.8 301C711.3 301 675.7 301 640 301C604.3 301 568.7 301 533.2 301C497.7 301 462.3 301 426.8 301C391.3 301 355.7 301 320 301C284.3 301 248.7 301 213.2 301C177.7 301 142.3 301 106.8 301C71.3 301 35.7 301 17.8 301L0 301Z"
                    fill="#ffffff"></path>
                <path
                    d="M0 196L17.8 200.3C35.7 204.7 71.3 213.3 106.8 216.5C142.3 219.7 177.7 217.3 213.2 212.7C248.7 208 284.3 201 320 196.7C355.7 192.3 391.3 190.7 426.8 191.8C462.3 193 497.7 197 533.2 198.7C568.7 200.3 604.3 199.7 640 202.7C675.7 205.7 711.3 212.3 746.8 210.5C782.3 208.7 817.7 198.3 853.2 195.2C888.7 192 924.3 196 942.2 198L960 200L960 301L942.2 301C924.3 301 888.7 301 853.2 301C817.7 301 782.3 301 746.8 301C711.3 301 675.7 301 640 301C604.3 301 568.7 301 533.2 301C497.7 301 462.3 301 426.8 301C391.3 301 355.7 301 320 301C284.3 301 248.7 301 213.2 301C177.7 301 142.3 301 106.8 301C71.3 301 35.7 301 17.8 301L0 301Z"
                    fill="#bbc8d1"></path>
                <path
                    d="M0 232L17.8 234.3C35.7 236.7 71.3 241.3 106.8 244.7C142.3 248 177.7 250 213.2 247.8C248.7 245.7 284.3 239.3 320 237.5C355.7 235.7 391.3 238.3 426.8 237.5C462.3 236.7 497.7 232.3 533.2 231.3C568.7 230.3 604.3 232.7 640 233.8C675.7 235 711.3 235 746.8 233.2C782.3 231.3 817.7 227.7 853.2 224.3C888.7 221 924.3 218 942.2 216.5L960 215L960 301L942.2 301C924.3 301 888.7 301 853.2 301C817.7 301 782.3 301 746.8 301C711.3 301 675.7 301 640 301C604.3 301 568.7 301 533.2 301C497.7 301 462.3 301 426.8 301C391.3 301 355.7 301 320 301C284.3 301 248.7 301 213.2 301C177.7 301 142.3 301 106.8 301C71.3 301 35.7 301 17.8 301L0 301Z"
                    fill="#6a8799"></path>
                <path
                    d="M0 247L17.8 247.2C35.7 247.3 71.3 247.7 106.8 252.3C142.3 257 177.7 266 213.2 271C248.7 276 284.3 277 320 277.8C355.7 278.7 391.3 279.3 426.8 274.3C462.3 269.3 497.7 258.7 533.2 259.5C568.7 260.3 604.3 272.7 640 272.5C675.7 272.3 711.3 259.7 746.8 254.2C782.3 248.7 817.7 250.3 853.2 254C888.7 257.7 924.3 263.3 942.2 266.2L960 269L960 301L942.2 301C924.3 301 888.7 301 853.2 301C817.7 301 782.3 301 746.8 301C711.3 301 675.7 301 640 301C604.3 301 568.7 301 533.2 301C497.7 301 462.3 301 426.8 301C391.3 301 355.7 301 320 301C284.3 301 248.7 301 213.2 301C177.7 301 142.3 301 106.8 301C71.3 301 35.7 301 17.8 301L0 301Z"
                    fill="#094b65"></path>
            </svg>