<svg id="visual" viewBox="0 0 960 300" width="960" height="300" xmlns="http://www.w3.org/2000/svg"
                xmlns:xlink="http://www.w3.org/1999/xlink" version="1.1">
                <rect x="0" y="0" width="960" height="300" fill="#094b65"></rect>
                <path
                    d="M0 75L20 77.3C40 79.7 80 84.3 120 78.2C160 72 200 55 240 44C280 33 320 28 360 30.5C400 33 440 43 480 53.7C520 64.3 560 75.7 600 72C640 68.3 680 49.7 720 50.7C760 51.7 800 72.3 840 74.8C880 77.3 920 61.7 940 53.8L960 46L960 301L940 301C920 301 880 301 840 301C800 301 760 301 720 301C680 301 640 301 600 301C560 301 520 301 480 301C440 301 400 301 360 301C320 301 280 301 240 301C200 301 160 301 120 301C80 301 40 301 20 301L0 301Z"
                    fill="#001220"></path>
                <path
                    d="M0 80L20 87.3C40 94.7 80 109.3 120 116.5C160 123.7 200 123.3 240 117.3C280 111.3 320 99.7 360 90.8C400 82 440 76 480 73.5C520 71 560 72 600 77.7C640 83.3 680 93.7 720 94.2C760 94.7 800 85.3 840 84.2C880 83 920 90 940 93.5L960 97L960 301L940 301C920 301 880 301 840 301C800 301 760 301 720 301C680 301 640 301 600 301C560 301 520 301 480 301C440 301 400 301 360 301C320 301 280 301 240 301C200 301 160 301 120 301C80 301 40 301 20 301L0 301Z"
                    fill="#626a74"></path>
                <path
                    d="M0 118L20 120C40 122 80 126 120 122.7C160 119.3 200 108.7 240 107.8C280 107 320 116 360 121.2C400 126.3 440 127.7 480 132.2C520 136.7 560 144.3 600 148C640 151.7 680 151.3 720 144.8C760 138.3 800 125.7 840 118.3C880 111 920 109 940 108L960 107L960 301L940 301C920 301 880 301 840 301C800 301 760 301 720 301C680 301 640 301 600 301C560 301 520 301 480 301C440 301 400 301 360 301C320 301 280 301 240 301C200 301 160 301 120 301C80 301 40 301 20 301L0 301Z"
                    fill="#d0d2d5"></path>
                <path
                    d="M0 168L20 162.5C40 157 80 146 120 147.5C160 149 200 163 240 170.5C280 178 320 179 360 180.8C400 182.7 440 185.3 480 184.2C520 183 560 178 600 173.2C640 168.3 680 163.7 720 160.3C760 157 800 155 840 150.7C880 146.3 920 139.7 940 136.3L960 133L960 301L940 301C920 301 880 301 840 301C800 301 760 301 720 301C680 301 640 301 600 301C560 301 520 301 480 301C440 301 400 301 360 301C320 301 280 301 240 301C200 301 160 301 120 301C80 301 40 301 20 301L0 301Z"
                    fill="#ffffff"></path>
                <path
                    d="M0 213L20 205.5C40 198 80 183 120 177.3C160 171.7 200 175.3 240 181.2C280 187 320 195 360 200C400 205 440 207 480 203.8C520 200.7 560 192.3 600 189.3C640 186.3 680 188.7 720 190C760 191.3 800 191.7 840 189.5C880 187.3 920 182.7 940 180.3L960 178L960 301L940 301C920 301 880 301 840 301C800 301 760 301 720 301C680 301 640 301 600 301C560 301 520 301 480 301C440 301 400 301 360 301C320 301 280 301 240 301C200 301 160 301 120 301C80 301 40 301 20 301L0 301Z"
                    fill="#d0d2d5"></path>
                <path
                    d="M0 210L20 209.5C40 209 80 208 120 208.2C160 208.3 200 209.7 240 215.2C280 220.7 320 230.3 360 230C400 229.7 440 219.3 480 219.3C520 219.3 560 229.7 600 235.8C640 242 680 244 720 243.8C760 243.7 800 241.3 840 238.7C880 236 920 233 940 231.5L960 230L960 301L940 301C920 301 880 301 840 301C800 301 760 301 720 301C680 301 640 301 600 301C560 301 520 301 480 301C440 301 400 301 360 301C320 301 280 301 240 301C200 301 160 301 120 301C80 301 40 301 20 301L0 301Z"
                    fill="#626a74"></path>
                <path
                    d="M0 251L20 253C40 255 80 259 120 264.2C160 269.3 200 275.7 240 276.2C280 276.7 320 271.3 360 268C400 264.7 440 263.3 480 264.2C520 265 560 268 600 264.8C640 261.7 680 252.3 720 251.7C760 251 800 259 840 265.2C880 271.3 920 275.7 940 277.8L960 280L960 301L940 301C920 301 880 301 840 301C800 301 760 301 720 301C680 301 640 301 600 301C560 301 520 301 480 301C440 301 400 301 360 301C320 301 280 301 240 301C200 301 160 301 120 301C80 301 40 301 20 301L0 301Z"
                    fill="#001220"></path>
            </svg>